<?xml version="1.0" encoding="utf-8"?>
<!-- Generator: Adobe Illustrator 28.0.0, SVG Export Plug-In . SVG Version: 6.00 Build 0)  -->
<svg version="1.1" id="Livello_1" xmlns="http://www.w3.org/2000/svg" xmlns:xlink="http://www.w3.org/1999/xlink" x="0px" y="0px"
	 viewBox="0 0 65 65" style="enable-background:new 0 0 65 65;" xml:space="preserve">
<style type="text/css">
	.st0{fill:#E5B438;}
	.st1{fill:#009CDE;}
	.st2{fill:#FFFFFF;}
</style>
<path class="st0" d="M40.4,42.2c-5,0-9.9,0-14.9,0c0-1.7,0-3.3,0-5c0.8,0,1.6,0,2.4,0c0-3.4,0-6.6,0-10c-0.8,0-1.6,0-2.5,0
	c0-1.7,0-3.3,0-4.9c4.1,0,8.3,0,12.4,0c0,4.9,0,9.9,0,14.9c0.8,0,1.6,0,2.5,0C40.4,38.9,40.4,40.5,40.4,42.2z"/>
<path class="st0" d="M38,15c0,2.7-2.2,5-5,5c-2.7,0-5-2.2-5-5c0-2.7,2.2-5,5-5C35.7,10,38,12.3,38,15z"/>
<g>
	<path class="st1" d="M57.6,27.3c0-13.6-11-24.6-24.6-24.6c-13.6,0-24.6,11-24.6,24.6c0,6.4,2.5,12.3,6.5,16.7l0,0L15,44
		c0.3,0.3,0.5,0.5,0.8,0.8L33,62.5l17.7-18.1l0,0C55,39.9,57.6,33.9,57.6,27.3z"/>
	<path class="st0" d="M33,64.2C33,64.2,33,64.2,33,64.2c-0.5,0-0.9-0.2-1.2-0.5L14.6,46c-0.3-0.3-0.6-0.6-0.8-0.8l-0.1-0.1
		c0,0-0.1-0.1-0.1-0.1c-4.4-4.9-6.9-11.1-6.9-17.7C6.7,12.8,18.5,1,33,1c14.5,0,26.3,11.8,26.3,26.3c0,6.8-2.6,13.3-7.3,18.2
		c0,0-0.1,0.1-0.1,0.1L34.2,63.7C33.9,64,33.4,64.2,33,64.2z M16.2,42.8L16.2,42.8C16.2,42.9,16.2,42.9,16.2,42.8
		c0.3,0.3,0.5,0.6,0.8,0.8c0,0,0,0,0,0L33,60l16.4-16.8c0,0,0-0.1,0.1-0.1c4.1-4.3,6.4-9.9,6.4-15.9C55.9,14.6,45.6,4.3,33,4.3
		c-12.6,0-22.9,10.3-22.9,22.9C10.1,33,12.2,38.5,16.2,42.8C16.1,42.8,16.2,42.8,16.2,42.8z"/>
</g>
<path class="st2" d="M40,41.3c-4.7,0-9.4,0-14.1,0c0-1.6,0-3.1,0-4.7c0.8,0,1.5,0,2.3,0c0-3.2,0-6.3,0-9.4c-0.8,0-1.5,0-2.3,0
	c0-1.6,0-3.1,0-4.7c3.9,0,7.8,0,11.7,0c0,4.7,0,9.3,0,14.1c0.8,0,1.6,0,2.3,0C40,38.2,40,39.7,40,41.3z"/>
<path class="st2" d="M37.7,15.6c0,2.6-2.1,4.7-4.7,4.7c-2.6,0-4.7-2.1-4.7-4.7c0-2.6,2.1-4.7,4.7-4.7C35.6,10.9,37.7,13,37.7,15.6z"
	/>
</svg>
