<svg width="41" height="57" viewBox="0 0 41 57" fill="none" xmlns="http://www.w3.org/2000/svg">
<g clip-path="url(#clip0_59_1385)">
<path d="M3.22451 28.5L31.7642 3.02268L37.9543 9.83518L17.0443 28.5L37.9543 47.1648L31.7642 53.9773L3.22451 28.5Z" fill="white"/>
<path d="M31.6039 6.04231L34.9055 9.67625L13.8198 28.5L34.9055 47.3238L31.6039 50.9577L6.44902 28.5L31.6039 6.04231ZM31.9245 0L28.7185 2.86375L3.56053 25.3184L0 28.5L3.56053 31.6786L28.7154 54.1362L31.9214 57L34.8099 53.8214L38.1115 50.1875L41 47.009L37.794 44.1452L20.2719 28.5031L37.794 12.8609L41 9.99716L38.1115 6.81861L34.8099 3.18466L31.9245 0Z" fill="#FFC72C"/>
</g>
<defs>
<clipPath id="clip0_59_1385">
<rect width="41" height="57" fill="white"/>
</clipPath>
</defs>
</svg>
