<svg width="293" height="75" viewBox="0 0 293 75" fill="none" xmlns="http://www.w3.org/2000/svg">
<mask id="path-1-outside-1_185_29" maskUnits="userSpaceOnUse" x="44" y="11" width="199" height="61" fill="black">
<rect fill="white" x="44" y="11" width="199" height="61"/>
<path d="M48.9981 15.9873H66.3399V24.6455H61.9981V59.3418H74.9981V24.6455H70.6436V15.9873H87.9854V16H87.9981V24.6709H83.6563V63.6709L79.3272 68H57.6563L53.3272 63.6709V24.6709H48.9981V15.9873ZM93.7872 68V59.3418H98.1163V24.6709H93.7872V16H106.787L119.787 43.0156V24.6709H115.445V16H132.787V24.6709H128.445V68H121.945L106.787 36.6553V59.3418H111.116V68H93.7872ZM138.576 68V59.3418H142.905V24.6709H138.576V16H155.905V24.6709H151.576V59.3418H155.905V68H138.576ZM167.077 68L162.748 63.6709V55H171.406V59.3418H184.406V46.3418H167.077L162.748 42V20.3418L167.077 16H188.748L193.077 20.3418V29H184.406V24.6709H171.406V37.6709H188.748L193.077 42V63.6709L188.748 68H167.077ZM225.768 37.6709V24.6709H212.768V37.6709H225.768ZM199.768 68V59.3418H204.097V24.6709H199.768V16H230.097L234.426 20.3418V42H234.413L232.268 44.1709L234.426 46.3418V59.3418H238.768V68H225.768V46.3418H212.768V59.3418H217.097V68H199.768Z"/>
</mask>
<path d="M48.9981 15.9873H66.3399V24.6455H61.9981V59.3418H74.9981V24.6455H70.6436V15.9873H87.9854V16H87.9981V24.6709H83.6563V63.6709L79.3272 68H57.6563L53.3272 63.6709V24.6709H48.9981V15.9873ZM93.7872 68V59.3418H98.1163V24.6709H93.7872V16H106.787L119.787 43.0156V24.6709H115.445V16H132.787V24.6709H128.445V68H121.945L106.787 36.6553V59.3418H111.116V68H93.7872ZM138.576 68V59.3418H142.905V24.6709H138.576V16H155.905V24.6709H151.576V59.3418H155.905V68H138.576ZM167.077 68L162.748 63.6709V55H171.406V59.3418H184.406V46.3418H167.077L162.748 42V20.3418L167.077 16H188.748L193.077 20.3418V29H184.406V24.6709H171.406V37.6709H188.748L193.077 42V63.6709L188.748 68H167.077ZM225.768 37.6709V24.6709H212.768V37.6709H225.768ZM199.768 68V59.3418H204.097V24.6709H199.768V16H230.097L234.426 20.3418V42H234.413L232.268 44.1709L234.426 46.3418V59.3418H238.768V68H225.768V46.3418H212.768V59.3418H217.097V68H199.768Z" fill="#FFC72C"/>
<path d="M48.9981 15.9873V11.9873H44.9981V15.9873H48.9981ZM66.3399 15.9873H70.3399V11.9873H66.3399V15.9873ZM66.3399 24.6455V28.6455H70.3399V24.6455H66.3399ZM61.9981 24.6455V20.6455H57.9981V24.6455H61.9981ZM61.9981 59.3418H57.9981V63.3418H61.9981V59.3418ZM74.9981 59.3418V63.3418H78.9981V59.3418H74.9981ZM74.9981 24.6455H78.9981V20.6455H74.9981V24.6455ZM70.6436 24.6455H66.6436V28.6455H70.6436V24.6455ZM70.6436 15.9873V11.9873H66.6436V15.9873H70.6436ZM87.9854 15.9873H91.9854V11.9873H87.9854V15.9873ZM87.9854 16H83.9854V20H87.9854V16ZM87.9981 16H91.9981V12H87.9981V16ZM87.9981 24.6709V28.6709H91.9981V24.6709H87.9981ZM83.6563 24.6709V20.6709H79.6563V24.6709H83.6563ZM83.6563 63.6709L86.4847 66.4993L87.6563 65.3278V63.6709H83.6563ZM79.3272 68V72H80.984L82.1556 70.8284L79.3272 68ZM57.6563 68L54.8279 70.8284L55.9994 72H57.6563V68ZM53.3272 63.6709H49.3272V65.3278L50.4988 66.4993L53.3272 63.6709ZM53.3272 24.6709H57.3272V20.6709H53.3272V24.6709ZM48.9981 24.6709H44.9981V28.6709H48.9981V24.6709ZM48.9981 19.9873H66.3399V11.9873H48.9981V19.9873ZM62.3399 15.9873V24.6455H70.3399V15.9873H62.3399ZM66.3399 20.6455H61.9981V28.6455H66.3399V20.6455ZM57.9981 24.6455V59.3418H65.9981V24.6455H57.9981ZM61.9981 63.3418H74.9981V55.3418H61.9981V63.3418ZM78.9981 59.3418V24.6455H70.9981V59.3418H78.9981ZM74.9981 20.6455H70.6436V28.6455H74.9981V20.6455ZM74.6436 24.6455V15.9873H66.6436V24.6455H74.6436ZM70.6436 19.9873H87.9854V11.9873H70.6436V19.9873ZM83.9854 15.9873V16H91.9854V15.9873H83.9854ZM87.9854 20H87.9981V12H87.9854V20ZM83.9981 16V24.6709H91.9981V16H83.9981ZM87.9981 20.6709H83.6563V28.6709H87.9981V20.6709ZM79.6563 24.6709V63.6709H87.6563V24.6709H79.6563ZM80.8279 60.8425L76.4988 65.1716L82.1556 70.8284L86.4847 66.4993L80.8279 60.8425ZM79.3272 64H57.6563V72H79.3272V64ZM60.4847 65.1716L56.1556 60.8425L50.4988 66.4993L54.8279 70.8284L60.4847 65.1716ZM57.3272 63.6709V24.6709H49.3272V63.6709H57.3272ZM53.3272 20.6709H48.9981V28.6709H53.3272V20.6709ZM52.9981 24.6709V15.9873H44.9981V24.6709H52.9981ZM93.7872 68H89.7872V72H93.7872V68ZM93.7872 59.3418V55.3418H89.7872V59.3418H93.7872ZM98.1163 59.3418V63.3418H102.116V59.3418H98.1163ZM98.1163 24.6709H102.116V20.6709H98.1163V24.6709ZM93.7872 24.6709H89.7872V28.6709H93.7872V24.6709ZM93.7872 16V12H89.7872V16H93.7872ZM106.787 16L110.392 14.2656L109.301 12H106.787V16ZM119.787 43.0156L116.183 44.7501L123.787 43.0156H119.787ZM119.787 24.6709H123.787V20.6709H119.787V24.6709ZM115.445 24.6709H111.445V28.6709H115.445V24.6709ZM115.445 16V12H111.445V16H115.445ZM132.787 16H136.787V12H132.787V16ZM132.787 24.6709V28.6709H136.787V24.6709H132.787ZM128.445 24.6709V20.6709H124.445V24.6709H128.445ZM128.445 68V72H132.445V68H128.445ZM121.945 68L118.344 69.7414L119.437 72H121.945V68ZM106.787 36.6553L110.388 34.9138L102.787 36.6553H106.787ZM106.787 59.3418H102.787V63.3418H106.787V59.3418ZM111.116 59.3418H115.116V55.3418H111.116V59.3418ZM111.116 68V72H115.116V68H111.116ZM97.7872 68V59.3418H89.7872V68H97.7872ZM93.7872 63.3418H98.1163V55.3418H93.7872V63.3418ZM102.116 59.3418V24.6709H94.1163V59.3418H102.116ZM98.1163 20.6709H93.7872V28.6709H98.1163V20.6709ZM97.7872 24.6709V16H89.7872V24.6709H97.7872ZM93.7872 20H106.787V12H93.7872V20ZM103.183 17.7344L116.183 44.7501L123.392 41.2812L110.392 14.2656L103.183 17.7344ZM123.787 43.0156V24.6709H115.787V43.0156H123.787ZM119.787 20.6709H115.445V28.6709H119.787V20.6709ZM119.445 24.6709V16H111.445V24.6709H119.445ZM115.445 20H132.787V12H115.445V20ZM128.787 16V24.6709H136.787V16H128.787ZM132.787 20.6709H128.445V28.6709H132.787V20.6709ZM124.445 24.6709V68H132.445V24.6709H124.445ZM128.445 64H121.945V72H128.445V64ZM125.546 66.2586L110.388 34.9138L103.186 38.3967L118.344 69.7414L125.546 66.2586ZM102.787 36.6553V59.3418H110.787V36.6553H102.787ZM106.787 63.3418H111.116V55.3418H106.787V63.3418ZM107.116 59.3418V68H115.116V59.3418H107.116ZM111.116 64H93.7872V72H111.116V64ZM138.576 68H134.576V72H138.576V68ZM138.576 59.3418V55.3418H134.576V59.3418H138.576ZM142.905 59.3418V63.3418H146.905V59.3418H142.905ZM142.905 24.6709H146.905V20.6709H142.905V24.6709ZM138.576 24.6709H134.576V28.6709H138.576V24.6709ZM138.576 16V12H134.576V16H138.576ZM155.905 16H159.905V12H155.905V16ZM155.905 24.6709V28.6709H159.905V24.6709H155.905ZM151.576 24.6709V20.6709H147.576V24.6709H151.576ZM151.576 59.3418H147.576V63.3418H151.576V59.3418ZM155.905 59.3418H159.905V55.3418H155.905V59.3418ZM155.905 68V72H159.905V68H155.905ZM142.576 68V59.3418H134.576V68H142.576ZM138.576 63.3418H142.905V55.3418H138.576V63.3418ZM146.905 59.3418V24.6709H138.905V59.3418H146.905ZM142.905 20.6709H138.576V28.6709H142.905V20.6709ZM142.576 24.6709V16H134.576V24.6709H142.576ZM138.576 20H155.905V12H138.576V20ZM151.905 16V24.6709H159.905V16H151.905ZM155.905 20.6709H151.576V28.6709H155.905V20.6709ZM147.576 24.6709V59.3418H155.576V24.6709H147.576ZM151.576 63.3418H155.905V55.3418H151.576V63.3418ZM151.905 59.3418V68H159.905V59.3418H151.905ZM155.905 64H138.576V72H155.905V64ZM167.077 68L164.249 70.8284L165.42 72H167.077V68ZM162.748 63.6709H158.748V65.3278L159.92 66.4993L162.748 63.6709ZM162.748 55V51H158.748V55H162.748ZM171.406 55H175.406V51H171.406V55ZM171.406 59.3418H167.406V63.3418H171.406V59.3418ZM184.406 59.3418V63.3418H188.406V59.3418H184.406ZM184.406 46.3418H188.406V42.3418H184.406V46.3418ZM167.077 46.3418L164.245 49.1661L165.417 50.3418H167.077V46.3418ZM162.748 42H158.748V43.6534L159.916 44.8243L162.748 42ZM162.748 20.3418L159.916 17.5175L158.748 18.6884V20.3418H162.748ZM167.077 16V12H165.417L164.245 13.1757L167.077 16ZM188.748 16L191.581 13.1757L190.408 12H188.748V16ZM193.077 20.3418H197.077V18.6884L195.91 17.5175L193.077 20.3418ZM193.077 29V33H197.077V29H193.077ZM184.406 29H180.406V33H184.406V29ZM184.406 24.6709H188.406V20.6709H184.406V24.6709ZM171.406 24.6709V20.6709H167.406V24.6709H171.406ZM171.406 37.6709H167.406V41.6709H171.406V37.6709ZM188.748 37.6709L191.577 34.8425L190.405 33.6709H188.748V37.6709ZM193.077 42H197.077V40.3431L195.906 39.1716L193.077 42ZM193.077 63.6709L195.906 66.4993L197.077 65.3278V63.6709H193.077ZM188.748 68V72H190.405L191.577 70.8284L188.748 68ZM169.906 65.1716L165.577 60.8425L159.92 66.4993L164.249 70.8284L169.906 65.1716ZM166.748 63.6709V55H158.748V63.6709H166.748ZM162.748 59H171.406V51H162.748V59ZM167.406 55V59.3418H175.406V55H167.406ZM171.406 63.3418H184.406V55.3418H171.406V63.3418ZM188.406 59.3418V46.3418H180.406V59.3418H188.406ZM184.406 42.3418H167.077V50.3418H184.406V42.3418ZM169.91 43.5175L165.581 39.1757L159.916 44.8243L164.245 49.1661L169.91 43.5175ZM166.748 42V20.3418H158.748V42H166.748ZM165.581 23.1661L169.91 18.8243L164.245 13.1757L159.916 17.5175L165.581 23.1661ZM167.077 20H188.748V12H167.077V20ZM185.916 18.8243L190.245 23.1661L195.91 17.5175L191.581 13.1757L185.916 18.8243ZM189.077 20.3418V29H197.077V20.3418H189.077ZM193.077 25H184.406V33H193.077V25ZM188.406 29V24.6709H180.406V29H188.406ZM184.406 20.6709H171.406V28.6709H184.406V20.6709ZM167.406 24.6709V37.6709H175.406V24.6709H167.406ZM171.406 41.6709H188.748V33.6709H171.406V41.6709ZM185.92 40.4993L190.249 44.8284L195.906 39.1716L191.577 34.8425L185.92 40.4993ZM189.077 42V63.6709H197.077V42H189.077ZM190.249 60.8425L185.92 65.1716L191.577 70.8284L195.906 66.4993L190.249 60.8425ZM188.748 64H167.077V72H188.748V64ZM225.768 37.6709V41.6709H229.768V37.6709H225.768ZM225.768 24.6709H229.768V20.6709H225.768V24.6709ZM212.768 24.6709V20.6709H208.768V24.6709H212.768ZM212.768 37.6709H208.768V41.6709H212.768V37.6709ZM199.768 68H195.768V72H199.768V68ZM199.768 59.3418V55.3418H195.768V59.3418H199.768ZM204.097 59.3418V63.3418H208.097V59.3418H204.097ZM204.097 24.6709H208.097V20.6709H204.097V24.6709ZM199.768 24.6709H195.768V28.6709H199.768V24.6709ZM199.768 16V12H195.768V16H199.768ZM230.097 16L232.929 13.1757L231.757 12H230.097V16ZM234.426 20.3418H238.426V18.6884L237.258 17.5175L234.426 20.3418ZM234.426 42V46H238.426V42H234.426ZM234.413 42V38H232.742L231.568 39.1883L234.413 42ZM232.268 44.1709L229.423 41.3592L226.636 44.1792L229.431 46.991L232.268 44.1709ZM234.426 46.3418H238.426V44.6918L237.263 43.5217L234.426 46.3418ZM234.426 59.3418H230.426V63.3418H234.426V59.3418ZM238.768 59.3418H242.768V55.3418H238.768V59.3418ZM238.768 68V72H242.768V68H238.768ZM225.768 68H221.768V72H225.768V68ZM225.768 46.3418H229.768V42.3418H225.768V46.3418ZM212.768 46.3418V42.3418H208.768V46.3418H212.768ZM212.768 59.3418H208.768V63.3418H212.768V59.3418ZM217.097 59.3418H221.097V55.3418H217.097V59.3418ZM217.097 68V72H221.097V68H217.097ZM229.768 37.6709V24.6709H221.768V37.6709H229.768ZM225.768 20.6709H212.768V28.6709H225.768V20.6709ZM208.768 24.6709V37.6709H216.768V24.6709H208.768ZM212.768 41.6709H225.768V33.6709H212.768V41.6709ZM203.768 68V59.3418H195.768V68H203.768ZM199.768 63.3418H204.097V55.3418H199.768V63.3418ZM208.097 59.3418V24.6709H200.097V59.3418H208.097ZM204.097 20.6709H199.768V28.6709H204.097V20.6709ZM203.768 24.6709V16H195.768V24.6709H203.768ZM199.768 20H230.097V12H199.768V20ZM227.264 18.8243L231.593 23.1661L237.258 17.5175L232.929 13.1757L227.264 18.8243ZM230.426 20.3418V42H238.426V20.3418H230.426ZM234.426 38H234.413V46H234.426V38ZM231.568 39.1883L229.423 41.3592L235.113 46.9826L237.258 44.8117L231.568 39.1883ZM229.431 46.991L231.589 49.1619L237.263 43.5217L235.104 41.3508L229.431 46.991ZM230.426 46.3418V59.3418H238.426V46.3418H230.426ZM234.426 63.3418H238.768V55.3418H234.426V63.3418ZM234.768 59.3418V68H242.768V59.3418H234.768ZM238.768 64H225.768V72H238.768V64ZM229.768 68V46.3418H221.768V68H229.768ZM225.768 42.3418H212.768V50.3418H225.768V42.3418ZM208.768 46.3418V59.3418H216.768V46.3418H208.768ZM212.768 63.3418H217.097V55.3418H212.768V63.3418ZM213.097 59.3418V68H221.097V59.3418H213.097ZM217.097 64H199.768V72H217.097V64Z" fill="white" mask="url(#path-1-outside-1_185_29)"/>
</svg>
